<svg xmlns="http://www.w3.org/2000/svg" width="27.116" height="27.116" viewBox="0 0 27.116 27.116"><defs><style>.a{fill:#6e798a;}</style></defs><g transform="translate(-313 -10.88)"><path class="a" d="M5105.125,6035.782c0-.024.006-.048,0-.072-.5-2.929-1.892-4.678-3.713-4.678l-.318,0c-1.5,0-2.6.015-3.737-1.6a.847.847,0,1,0-1.385.974,5.323,5.323,0,0,0,5.133,2.319h.308c.812,0,1.441,1.039,1.809,2.279h-23.288c.358-1.241.973-2.279,1.765-2.279h.3c1.586.019,3.565.021,5.19-2.324a.847.847,0,1,0-1.394-.965c-1.115,1.611-2.305,1.606-3.787,1.594h-.313c-1.8,0-3.171,1.75-3.666,4.681a.58.58,0,0,0,0,.071c0,.024-.014.045-.014.069a.772.772,0,0,0,.019.1.808.808,0,0,0,.034.167.775.775,0,0,0,.065.145.865.865,0,0,0,.09.132.843.843,0,0,0,.117.111.749.749,0,0,0,.132.088.781.781,0,0,0,.157.06.734.734,0,0,0,.092.036.864.864,0,0,0,.141.012h25.422a.777.777,0,0,0,.142-.013.827.827,0,0,0,.09-.034.9.9,0,0,0,.161-.062.866.866,0,0,0,.128-.087.725.725,0,0,0,.119-.113.841.841,0,0,0,.089-.131.866.866,0,0,0,.065-.146.835.835,0,0,0,.034-.166.872.872,0,0,0,.019-.1C5105.14,6035.828,5105.127,6035.806,5105.125,6035.782Z" transform="translate(-4765.024 -5998.705)"/><path class="a" d="M5100.258,6016.867a.787.787,0,0,0,.03-.146c0-5.543-2.93-8.474-8.474-8.474s-8.474,2.931-8.474,8.474a.756.756,0,0,0,.03.146,2.537,2.537,0,0,0-1.725,2.4v1.7a2.544,2.544,0,0,0,2.542,2.541h1.695a.839.839,0,0,0,.378-.1c1.182,3.106,3.483,5.184,5.554,5.184a3.683,3.683,0,0,0,1.116-.182.848.848,0,1,0-.521-1.613,1.97,1.97,0,0,1-.6.1c-1.877,0-4.66-3.3-4.66-7.868,0-3.774,1.567-5.689,4.66-5.689a4.217,4.217,0,0,1,3.564,1.53.847.847,0,1,0,1.346-1.029,5.9,5.9,0,0,0-4.91-2.2,5.82,5.82,0,0,0-6.137,5.084h-.642c0-4.625,2.154-6.779,6.779-6.779s6.779,2.154,6.779,6.779h-1.3a.635.635,0,0,0-.155,0,.847.847,0,0,0-.737.944,11.285,11.285,0,0,1,.078,1.354,10.718,10.718,0,0,1-.537,3.366.846.846,0,0,0,.539,1.069.817.817,0,0,0,.266.043.737.737,0,0,0,.1-.016.675.675,0,0,0,.08.016h1.669a.849.849,0,0,1-.848.849h-3.39v-.849a.847.847,0,0,0-1.695,0v1.7a.847.847,0,0,0,.848.848h4.236a2.546,2.546,0,0,0,2.542-2.543v-.155a2.539,2.539,0,0,0,1.695-2.386v-1.7A2.538,2.538,0,0,0,5100.258,6016.867Zm-14.78,1.548c-.009.2-.019.4-.019.605a12.416,12.416,0,0,0,.315,2.784h-1.587a.847.847,0,0,1-.847-.847v-1.7a.848.848,0,0,1,.847-.848Zm14.81,2.543a.847.847,0,0,1-.847.847h-1.59a12.4,12.4,0,0,0,.318-2.784c0-.206-.008-.405-.017-.605h1.289a.848.848,0,0,1,.847.848Z" transform="translate(-4765.256 -5997.367)"/></g></svg>