<svg xmlns="http://www.w3.org/2000/svg" width="44" height="44" viewBox="0 0 44 44"><defs><style>.a,.b{fill:none;}.b{stroke:#115c32;stroke-linecap:round;stroke-linejoin:round;stroke-width:0.943px;}</style></defs><g transform="translate(-16.001 -454.751)"><g transform="translate(16.001 454.75)"><rect class="a" width="44" height="44" transform="translate(0 44) rotate(-90)"/></g><g transform="translate(-66.764 -120.884)"><circle class="b" cx="0.68" cy="0.68" r="0.68" transform="translate(104.466 585.308)"/><path class="b" d="M109.09,587.076h2.239a1.176,1.176,0,0,1,1.175,1.176v14.794a1.175,1.175,0,0,1-1.175,1.175H98.94a1.176,1.176,0,0,1-1.176-1.175V588.252a1.176,1.176,0,0,1,1.176-1.176h2.239" transform="translate(0 -1.056)"/><path class="b" d="M102.721,586.02v2.942h7.911V586.02h-1.618a2.337,2.337,0,0,0-4.675,0Z" transform="translate(-1.542)"/><line class="b" x2="8.579" transform="translate(100.845 592.301)"/><line class="b" x2="8.579" transform="translate(100.845 595.64)"/><line class="b" x2="5.24" transform="translate(100.845 598.979)"/></g></g></svg>