<svg xmlns="http://www.w3.org/2000/svg" width="17.724" height="20.002" viewBox="0 0 17.724 20.002"><defs><style>.a,.b{fill:none;stroke-linecap:round;stroke-linejoin:round;}.b{stroke:#fff;}.c,.d{stroke:none;}.d{fill:#fff;}</style></defs><g class="a" transform="translate(-1591.073 -515.904)"><path class="c" d="M1602.459,528.65q2.983-3.558,5.971-7.108a1.351,1.351,0,0,0,.335-1.208l-.017-.079a3.783,3.783,0,0,0-.3-.948,6.315,6.315,0,0,0-3.735-3.2,4.134,4.134,0,0,0-.815-.154c-.1-.018-.2-.027-.3-.044a.6.6,0,0,0-.2,0,1.6,1.6,0,0,0-.979.56q-5.179,6.185-10.376,12.365a1.574,1.574,0,0,0-.365.847c-.159,1.371-.331,2.751-.5,4.127l-.1.864a1.2,1.2,0,0,0,0,.247,1.08,1.08,0,0,0,.375.736,1.1,1.1,0,0,0,1.031.194l.759-.234q2.051-.622,4.1-1.257a1.611,1.611,0,0,0,.706-.472c.781-.913,1.548-1.834,2.32-2.752l2.09-2.491Z"/><path class="d" d="M 1592.14013671875 534.9066772460938 C 1592.157470703125 534.9066772460938 1592.17626953125 534.90380859375 1592.196044921875 534.8981323242188 L 1592.952514648438 534.6649780273438 C 1594.35302734375 534.2403564453125 1595.728637695312 533.8187866210938 1597.041015625 533.4119873046875 C 1597.126831054688 533.383544921875 1597.228515625 533.314453125 1597.289306640625 533.2435302734375 C 1597.841552734375 532.5977783203125 1598.397338867188 531.9352416992188 1598.934936523438 531.2944946289062 C 1599.157836914062 531.02880859375 1599.380737304688 530.7631225585938 1599.60302734375 530.4990844726562 L 1601.692626953125 528.0078125 C 1603.585815429688 525.7496337890625 1605.594970703125 523.3575439453125 1607.66455078125 520.8980102539062 C 1607.666625976562 520.8955078125 1607.668701171875 520.89306640625 1607.6708984375 520.8905639648438 C 1607.823608398438 520.7125854492188 1607.800903320312 520.6080932617188 1607.787109375 520.544189453125 L 1607.77001953125 520.46484375 C 1607.769653320312 520.4630737304688 1607.769165039062 520.4613037109375 1607.768798828125 520.4595336914062 C 1607.72265625 520.239501953125 1607.665283203125 519.9656372070312 1607.560913085938 519.7598266601562 C 1606.89453125 518.4502563476562 1605.829833984375 517.5407104492188 1604.400756835938 517.0578002929688 C 1604.23583984375 517.0028686523438 1604.02880859375 516.9776000976562 1603.828369140625 516.9532470703125 L 1603.779418945312 516.947265625 C 1603.760986328125 516.9450073242188 1603.742553710938 516.9421997070312 1603.724243164062 516.9389038085938 C 1603.696411132812 516.9338989257812 1603.656982421875 516.9287109375 1603.615234375 516.9232177734375 C 1603.587280273438 516.9194946289062 1603.557250976562 516.91552734375 1603.525512695312 516.9109497070312 C 1603.357788085938 516.9524536132812 1603.268432617188 517.0242919921875 1603.190551757812 517.1170043945312 C 1600.192504882812 520.6971435546875 1596.894897460938 524.6266479492188 1592.8134765625 529.4826049804688 C 1592.732543945312 529.5791625976562 1592.691162109375 529.6756591796875 1592.675170898438 529.804931640625 C 1592.555541992188 530.8347778320312 1592.427001953125 531.8850708007812 1592.302612304688 532.9007568359375 C 1592.260375976562 533.24560546875 1592.21826171875 533.5903930664062 1592.176635742188 533.9313354492188 L 1592.075927734375 534.7850341796875 C 1592.073608398438 534.8088989257812 1592.072998046875 534.8219604492188 1592.072875976562 534.8280029296875 C 1592.073120117188 534.8303833007812 1592.073364257812 534.832763671875 1592.073486328125 534.8350830078125 C 1592.076538085938 534.8684692382812 1592.087768554688 534.8893432617188 1592.09619140625 534.8964233398438 C 1592.103759765625 534.9027099609375 1592.12060546875 534.9066772460938 1592.14013671875 534.9066772460938 L 1592.14013671875 534.9066772460938 M 1592.14013671875 535.9066772460938 C 1591.88671875 535.9066772460938 1591.64453125 535.8231201171875 1591.45263671875 535.6617431640625 C 1591.236328125 535.4808349609375 1591.10400390625 535.2161865234375 1591.07763671875 534.9254150390625 C 1591.06884765625 534.8458251953125 1591.0732421875 534.7623291015625 1591.08154296875 534.6783447265625 L 1591.18359375 533.8140869140625 C 1591.35107421875 532.4381103515625 1591.52294921875 531.0579833984375 1591.68212890625 529.6866455078125 C 1591.72119140625 529.3643798828125 1591.84033203125 529.0867919921875 1592.04736328125 528.8399658203125 C 1595.50927734375 524.7210693359375 1598.97119140625 520.5980224609375 1602.423828125 516.4749755859375 C 1602.67919921875 516.1710205078125 1602.9970703125 515.9901123046875 1603.40283203125 515.9149169921875 C 1603.43896484375 515.90771484375 1603.476440429688 515.9044189453125 1603.513061523438 515.9044189453125 C 1603.54345703125 515.9044189453125 1603.5732421875 515.9066772460938 1603.60107421875 515.9107666015625 C 1603.70263671875 515.9281005859375 1603.8037109375 515.9371337890625 1603.9013671875 515.9547119140625 C 1604.15185546875 515.9854736328125 1604.43896484375 516.0164794921875 1604.716796875 516.1090087890625 C 1606.40087890625 516.6781005859375 1607.662109375 517.7537841796875 1608.4521484375 519.3062744140625 C 1608.61083984375 519.6192626953125 1608.685546875 519.9586181640625 1608.74755859375 520.2542724609375 L 1608.7646484375 520.3336181640625 C 1608.857421875 520.7613525390625 1608.74755859375 521.1715087890625 1608.4296875 521.5418701171875 C 1606.44091796875 523.9053955078125 1604.44775390625 526.2779541015625 1602.458984375 528.6502685546875 L 1600.369140625 531.1417236328125 C 1599.59716796875 532.0589599609375 1598.830078125 532.9803466796875 1598.04931640625 533.8934326171875 C 1597.8642578125 534.1094970703125 1597.603515625 534.2816162109375 1597.34375 534.3651123046875 C 1595.97705078125 534.7886962890625 1594.60986328125 535.2073974609375 1593.24267578125 535.6219482421875 L 1592.48388671875 535.8558349609375 C 1592.369384765625 535.889892578125 1592.253662109375 535.9066772460938 1592.14013671875 535.9066772460938 Z"/></g><path class="b" d="M1594.688,517.136" transform="translate(-1578.746 -511.706)"/><line class="b" x1="4.761" y1="3.995" transform="translate(10.514 2.845)"/></svg>