<svg xmlns="http://www.w3.org/2000/svg" width="47.411" height="30.743" viewBox="0 0 47.411 30.743"><defs><style>.a{fill:#9aa1b1;}</style></defs><g transform="translate(-44 -259)"><g transform="translate(-4624.226 -5735.299)"><path class="a" d="M4712.531,6025.042h-41.2a3.107,3.107,0,0,1,0-6.214h41.2a3.107,3.107,0,0,1,0,6.214Zm-41.2-4.841a1.734,1.734,0,0,0,0,3.468h41.2a1.734,1.734,0,0,0,0-3.468Z"/><path class="a" d="M4712.29,6020.2h-40.716v-.687a20.356,20.356,0,0,1,4.891-13.237.686.686,0,1,1,1.042.893,18.984,18.984,0,0,0-4.548,11.658H4710.9a18.991,18.991,0,0,0-28.677-15.635.686.686,0,1,1-.7-1.18,20.364,20.364,0,0,1,30.764,17.5Z"/><path class="a" d="M4693.7,6000.612c-.02,0-.04,0-.06,0a17.981,17.981,0,0,0-3.408,0,.69.69,0,0,1-.557-.21,3.666,3.666,0,0,1-1-2.552,3.277,3.277,0,1,1,6.531,0,3.666,3.666,0,0,1-1,2.552A.684.684,0,0,1,4693.7,6000.612Zm-1.764-4.941a2.053,2.053,0,0,0-1.893,2.177,2.328,2.328,0,0,0,.427,1.364,19.208,19.208,0,0,1,2.932,0,2.328,2.328,0,0,0,.426-1.364A2.053,2.053,0,0,0,4691.932,5995.671Z"/><path class="a" d="M4711.267,6016.572h-23.09a.686.686,0,0,1,0-1.373h23.09a.686.686,0,0,1,0,1.373Z"/></g></g></svg>