<svg xmlns="http://www.w3.org/2000/svg" width="20.026" height="17.92" viewBox="0 0 20.026 17.92"><defs><style>.a{fill:none;stroke-miterlimit:10;fill-rule:evenodd;}.b,.c{stroke:none;}.c{fill:#6e798a;}</style></defs><g class="a" transform="translate(-1428.296 -217.072)"><path class="b" d="M1438.307,234.992c-19.533-10.654-5.4-23.9,0-14.981,5.408-8.923,19.537,4.327,0,14.981Z"/><path class="c" d="M 1438.30712890625 234.7339172363281 C 1442.2255859375 232.58154296875 1445.025512695312 230.1941528320312 1446.629638671875 227.6371459960938 C 1448.303466796875 224.9690704345703 1448.24462890625 222.7998352050781 1447.900390625 221.4498901367188 C 1447.591430664062 220.2377166748047 1446.93505859375 219.1944885253906 1446.00244140625 218.4329681396484 C 1445.10693359375 217.7017517089844 1444.015380859375 217.2990570068359 1442.929077148438 217.2990570068359 C 1441.179809570312 217.2990570068359 1439.607299804688 218.30419921875 1438.501098632812 220.1293182373047 L 1438.307006835938 220.4494018554688 L 1438.113159179688 220.1292572021484 C 1437.0078125 218.3041839599609 1435.43603515625 217.2990570068359 1433.687255859375 217.2990570068359 C 1432.6015625 217.2990570068359 1431.510498046875 217.7017364501953 1430.615234375 218.4329223632812 C 1429.682861328125 219.1944122314453 1429.026611328125 220.2376098632812 1428.717529296875 221.4497375488281 C 1428.373413085938 222.7997589111328 1428.314208984375 224.9691009521484 1429.9873046875 227.6372375488281 C 1431.5908203125 230.1943054199219 1434.389892578125 232.5816650390625 1438.30712890625 234.7339172363281 M 1438.30712890625 234.992431640625 C 1423.287963867188 226.8004913330078 1428.171875 217.0722808837891 1433.687255859375 217.0722808837891 C 1435.3447265625 217.0722808837891 1437.058349609375 217.9498443603516 1438.30712890625 220.0117797851562 C 1439.556518554688 217.9503784179688 1441.271484375 217.0722808837891 1442.929077148438 217.0722808837891 C 1448.44677734375 217.0722808837891 1453.330810546875 226.7998504638672 1438.30712890625 234.992431640625 Z"/></g></svg>