<svg xmlns="http://www.w3.org/2000/svg" width="28.659" height="22.789" viewBox="0 0 28.659 22.789"><defs><style>.a{fill:#fff;stroke:#fff;stroke-miterlimit:10;stroke-width:0.377px;}</style></defs><g transform="translate(-83.811 -472.811)"><g transform="translate(-272.062 -321.499)"><path class="a" d="M370.2,799.666a6.995,6.995,0,1,0,6.994,6.995A7,7,0,0,0,370.2,799.666Zm5.6,6.994a5.6,5.6,0,1,1-5.6-5.6A5.606,5.606,0,0,1,375.8,806.66Z"/><path class="a" d="M380.258,800.1a1.153,1.153,0,1,0,1.153,1.152A1.155,1.155,0,0,0,380.258,800.1Z"/><path class="a" d="M380.954,797.023h-4.288l-.315-1.123-.011-.044a1.791,1.791,0,0,0-1.724-1.357h-8.825a1.756,1.756,0,0,0-1.719,1.343l-.35,1.181h-4.269a3.4,3.4,0,0,0-3.391,3.391v13.107a3.394,3.394,0,0,0,3.391,3.39h21.5a3.394,3.394,0,0,0,3.39-3.39V800.414A3.394,3.394,0,0,0,380.954,797.023Zm1.995,3.391v13.107a2,2,0,0,1-1.995,2h-21.5a2,2,0,0,1-2-2V800.414a2,2,0,0,1,2-2h5.309l.659-2.227a.377.377,0,0,1,.369-.3h8.826a.386.386,0,0,1,.371.306l.622,2.219h5.345A2,2,0,0,1,382.949,800.414Z"/></g></g></svg>