<svg xmlns="http://www.w3.org/2000/svg" width="28.976" height="28.977" viewBox="0 0 28.976 28.977"><defs><style>.a{fill:#6e798a;}</style></defs><g transform="translate(-100 -12.021)"><g transform="translate(-4742 -5996.227)"><path class="a" d="M4856.593,6016.4c1.054,0,2.612.575,2.612,1.811a.906.906,0,0,0,1.811,0c0-1.989-1.73-3.275-3.622-3.561v-.967a.906.906,0,0,0-1.811,0v1.024a4.763,4.763,0,0,0-2.2,1.1,4.233,4.233,0,0,0-1.424,3.162c0,1.936,1.451,3.53,4.2,4.61,1.138.449,3.048,1.424,3.048,2.925a2.446,2.446,0,0,1-.831,1.82,2.987,2.987,0,0,1-1.991.751c-1.084,0-2.611-.561-2.611-1.811a.906.906,0,1,0-1.811,0c0,1.989,1.73,3.275,3.622,3.561v.967a.906.906,0,0,0,1.811,0v-1.024a4.775,4.775,0,0,0,2.2-1.1,4.235,4.235,0,0,0,1.425-3.162c0-1.935-1.451-3.53-4.2-4.61-1.138-.448-3.048-1.424-3.048-2.925a2.441,2.441,0,0,1,.83-1.82A2.984,2.984,0,0,1,4856.593,6016.4Z"/></g><g transform="translate(-4742 -5996.227)"><path class="a" d="M4870.848,6020.8a14.372,14.372,0,0,0-1.8-5.3.906.906,0,1,0-1.569.905,12.576,12.576,0,0,1,1.577,4.632,12.923,12.923,0,0,1,.112,1.694,12.672,12.672,0,1,1-6.351-10.988.905.905,0,0,0,.906-1.568,14.468,14.468,0,1,0,7.128,10.623Z"/></g></g></svg>