<svg xmlns="http://www.w3.org/2000/svg" width="23.062" height="28.659" viewBox="0 0 23.062 28.659"><defs><style>.a{fill:#fff;stroke:#fff;stroke-miterlimit:10;stroke-width:0.377px;}</style></defs><g transform="translate(-87.811 -567.812)"><g transform="translate(-358.108 116.779)"><path class="a" d="M457.444,451.221a11.351,11.351,0,0,0-11.336,11.336,11.192,11.192,0,0,0,.2,2.129c.006.041.03.166.078.379a11.121,11.121,0,0,0,.758,2.236c1.222,2.875,3.908,7.292,9.8,12.024a.8.8,0,0,0,1.008,0c5.888-4.732,8.58-9.149,9.8-12.024a11.058,11.058,0,0,0,.759-2.236c.048-.213.071-.338.077-.379a11.615,11.615,0,0,0,.2-2.129,11.369,11.369,0,0,0-11.349-11.336ZM467,464.407c0,.012-.006.024-.006.036-.006.029-.024.118-.053.255v.012a9.411,9.411,0,0,1-.658,1.932c-.006.006-.006.018-.012.024-1.109,2.627-3.54,6.635-8.829,11.005-5.288-4.37-7.719-8.378-8.828-11.005-.006-.006-.006-.018-.012-.024a9.98,9.98,0,0,1-.658-1.932V464.7c-.036-.137-.048-.226-.054-.255,0-.012-.005-.024-.005-.042a9.643,9.643,0,0,1-.178-1.85,9.735,9.735,0,0,1,19.471,0,9.613,9.613,0,0,1-.178,1.856Zm0,0"/><path class="a" d="M457.444,455.484a7.2,7.2,0,1,0,7.2,7.2,7.209,7.209,0,0,0-7.2-7.2Zm0,12.795a5.6,5.6,0,1,1,5.6-5.6,5.6,5.6,0,0,1-5.6,5.6Zm0,0"/></g></g></svg>