<svg xmlns="http://www.w3.org/2000/svg" width="35.766" height="33.688" viewBox="0 0 35.766 33.688"><defs><style>.a{isolation:isolate;}.b{fill:#115c32;}.c{fill:#94cc00;}</style></defs><g class="a" transform="translate(-4534.234 -5812.863)"><path class="b" d="M4545.956,5827.164a.532.532,0,0,1-.265-.071l-5.847-3.376a.53.53,0,0,1,0-.92l5.847-3.32a.529.529,0,0,1,.523,0l5.847,3.32a.529.529,0,0,1,0,.92l-5.847,3.376A.53.53,0,0,1,4545.956,5827.164Zm-4.78-3.9,4.78,2.76,4.78-2.76-4.78-2.714Z"/><path class="b" d="M4545.956,5833.916a.526.526,0,0,1-.265-.072l-5.847-3.375a.532.532,0,0,1-.265-.46v-6.751a.531.531,0,0,1,1.061,0v6.445l5.581,3.223a.531.531,0,0,1-.265.99Z"/><path class="b" d="M4545.957,5833.916a.531.531,0,0,1-.266-.99l5.582-3.223v-6.445a.531.531,0,0,1,1.061,0v6.751a.533.533,0,0,1-.266.46l-5.847,3.375A.52.52,0,0,1,4545.957,5833.916Z"/><path class="b" d="M4545.956,5831.648a.53.53,0,0,1-.53-.53v-4.484a.53.53,0,1,1,1.06,0v4.484A.529.529,0,0,1,4545.956,5831.648Z"/><path class="b" d="M4567.035,5838.361h-4.654a.53.53,0,0,1,0-1.06h4.654a.53.53,0,0,1,0,1.06Z"/><path class="b" d="M4548.271,5846.551a2.845,2.845,0,1,1,2.846-2.846A2.849,2.849,0,0,1,4548.271,5846.551Zm0-4.631a1.785,1.785,0,1,0,1.786,1.785A1.788,1.788,0,0,0,4548.271,5841.92Z"/><path class="b" d="M4543.413,5846.551a2.845,2.845,0,1,1,1.975-4.891.53.53,0,1,1-.736.762,1.785,1.785,0,1,0,0,2.567.53.53,0,0,1,.737.762A2.831,2.831,0,0,1,4543.413,5846.551Z"/><path class="b" d="M4567.71,5843.122h-3.287a.53.53,0,1,1,0-1.06h2.226v-1.132a29.053,29.053,0,0,0-1.5-9.234,2.976,2.976,0,0,0-2.763-1.854h-2.259v6.913a2.278,2.278,0,0,1-2.276,2.275h-22.551v1.923a1.11,1.11,0,0,0,1.109,1.109h3.272a.53.53,0,1,1,0,1.06H4536.4a2.172,2.172,0,0,1-2.17-2.169v-2.983h23.612a1.217,1.217,0,0,0,1.216-1.215v-7.973h3.319a4,4,0,0,1,3.761,2.558,30.163,30.163,0,0,1,1.568,9.59Z"/><path class="b" d="M4562.392,5846.551a2.845,2.845,0,1,1,2.846-2.846A2.849,2.849,0,0,1,4562.392,5846.551Zm0-4.631a1.785,1.785,0,1,0,1.785,1.785A1.788,1.788,0,0,0,4562.392,5841.92Z"/><path class="b" d="M4558.614,5843.122h-6.6a.53.53,0,1,1,0-1.06h6.6a.53.53,0,1,1,0,1.06Z"/><path class="b" d="M4559.592,5829.842a.529.529,0,0,1-.53-.53V5826.9a.53.53,0,0,1,1.06,0v2.407A.53.53,0,0,1,4559.592,5829.842Z"/><path class="b" d="M4556.844,5836.861h-21.469a1.142,1.142,0,0,1-1.141-1.14v-17.312a1.926,1.926,0,0,1,1.923-1.922h11.584v-.016h15.128v-3.608l7.131,6.043-7.131,6.041v-3.608h-10.851a.531.531,0,1,1,0-1.061h11.912v2.381l4.43-3.753-4.43-3.754v2.379H4548.8v.017h-12.645a.863.863,0,0,0-.862.861v17.312a.08.08,0,0,0,.08.08h21.469a.08.08,0,0,0,.08-.08v-13.2a.53.53,0,1,1,1.06,0v13.2A1.14,1.14,0,0,1,4556.844,5836.861Z"/><path class="c" d="M4562.381,5830.827h-1.274v4.821h4.053a26.022,26.022,0,0,0-.942-3.614A1.975,1.975,0,0,0,4562.381,5830.827Z"/></g></svg>