<svg xmlns="http://www.w3.org/2000/svg" width="31.399" height="32.926" viewBox="0 0 31.399 32.926"><defs><style>.a{fill:#115c32;}.b{fill:#94cc00;}</style></defs><g transform="translate(-3705.955 -5730.38)"><path class="a" d="M3732.428,5754.4h-21.547a.55.55,0,0,1-.267-1.031l10.774-5.972a.55.55,0,0,1,.533,0l10.773,5.972a.55.55,0,0,1-.266,1.031Zm-19.421-1.1H3730.3l-8.648-4.794Z"/><path class="a" d="M3713.121,5761.116a.55.55,0,0,1-.55-.55v-6.717a.55.55,0,1,1,1.1,0v6.717A.55.55,0,0,1,3713.121,5761.116Z"/><path class="a" d="M3715.337,5761.116a.55.55,0,0,1-.55-.55v-6.717a.55.55,0,1,1,1.1,0v6.717A.55.55,0,0,1,3715.337,5761.116Z"/><path class="a" d="M3720.546,5761.116a.55.55,0,0,1-.55-.55v-6.717a.55.55,0,1,1,1.1,0v6.717A.55.55,0,0,1,3720.546,5761.116Z"/><path class="a" d="M3722.763,5761.116a.55.55,0,0,1-.55-.55v-6.717a.55.55,0,1,1,1.1,0v6.717A.551.551,0,0,1,3722.763,5761.116Z"/><path class="a" d="M3727.972,5761.116a.55.55,0,0,1-.55-.55v-6.717a.549.549,0,1,1,1.1,0v6.717A.55.55,0,0,1,3727.972,5761.116Z"/><path class="a" d="M3730.188,5761.116a.55.55,0,0,1-.55-.55v-6.717a.55.55,0,1,1,1.1,0v6.717A.55.55,0,0,1,3730.188,5761.116Z"/><path class="a" d="M3730.123,5753.027a.55.55,0,0,1-.55-.549V5743.3a.4.4,0,0,0-.4-.4H3714.14a.4.4,0,0,0-.4.4v9.178a.55.55,0,0,1-1.1,0V5743.3a1.506,1.506,0,0,1,1.5-1.5h15.029a1.506,1.506,0,0,1,1.5,1.5v9.178A.55.55,0,0,1,3730.123,5753.027Z"/><path class="b" d="M3714.611,5743.771v6.38l6.383-3.539a1.361,1.361,0,0,1,1.321,0l6.383,3.539v-6.38Z"/><path class="a" d="M3724.923,5742.9a.55.55,0,0,1-.55-.55v-3.432a.582.582,0,0,0-.582-.582h-4.273a.582.582,0,0,0-.582.582v3.432a.55.55,0,0,1-1.1,0v-3.432a1.683,1.683,0,0,1,1.682-1.682h4.273a1.683,1.683,0,0,1,1.682,1.682v3.432A.55.55,0,0,1,3724.923,5742.9Z"/><path class="a" d="M3721.654,5738.332a.55.55,0,0,1-.55-.55v-6.453a.55.55,0,0,1,.9-.422,1.273,1.273,0,0,0,.952.206,4.989,4.989,0,0,0,1.118-.327l.15-.055a4.617,4.617,0,0,1,1.582-.351h.022a3.635,3.635,0,0,1,1.534.393.553.553,0,0,1,.314.5v3.572a.549.549,0,0,1-.785.5,2.583,2.583,0,0,0-1.073-.288h-.013a3.6,3.6,0,0,0-1.2.284l-.154.058a5.974,5.974,0,0,1-1.357.384.557.557,0,0,1-.615-.477.55.55,0,0,1,.478-.614,5.079,5.079,0,0,0,1.11-.325l.159-.058a4.574,4.574,0,0,1,1.581-.352h.022a3.039,3.039,0,0,1,.748.1v-2.421a2.233,2.233,0,0,0-.758-.155,4.426,4.426,0,0,0-1.215.285l-.143.053a5.972,5.972,0,0,1-1.368.388,2.711,2.711,0,0,1-.891-.028v5.605A.55.55,0,0,1,3721.654,5738.332Z"/><path class="a" d="M3736.8,5761.116a.55.55,0,0,1-.55-.55v-12.911a.874.874,0,0,0-.873-.873h-5.258a.55.55,0,1,1,0-1.1h5.258a1.974,1.974,0,0,1,1.973,1.972v12.911A.551.551,0,0,1,3736.8,5761.116Z"/><path class="a" d="M3706.5,5761.116a.55.55,0,0,1-.55-.55v-12.911a1.974,1.974,0,0,1,1.973-1.972h5.258a.55.55,0,0,1,0,1.1h-5.258a.874.874,0,0,0-.873.873v12.911A.55.55,0,0,1,3706.5,5761.116Z"/><path class="a" d="M3732.063,5761.116h-20.846a.55.55,0,1,1,0-1.1h20.846a.55.55,0,1,1,0,1.1Z"/><path class="a" d="M3727.239,5763.306h-11.2a.55.55,0,1,1,0-1.1h11.2a.55.55,0,1,1,0,1.1Z"/></g></svg>