<svg xmlns="http://www.w3.org/2000/svg" xmlns:xlink="http://www.w3.org/1999/xlink" width="343" height="33.172" viewBox="0 0 343 33.172"><defs><style>.a{fill:url(#a);}.b,.d{fill:#115c32;}.c{fill:#94cc00;}.d{font-size:17px;font-family:SFUIDisplay-Semibold, SF UI Display;font-weight:600;}</style><linearGradient id="a" x1="0.547" x2="0.55" y2="1" gradientUnits="objectBoundingBox"><stop offset="0" stop-color="#bdef35"/><stop offset="1" stop-color="#93d500"/></linearGradient></defs><g transform="translate(-16 -124.001)"><rect class="a" width="343" height="26" rx="13" transform="translate(16 128)"/><g transform="translate(-3676.587 -5606.379)"><g transform="translate(3710.364 5747.453)"><path class="b" d="M3732.593,5754.451h-21.708a.554.554,0,0,1-.269-1.039l10.854-6.017a.557.557,0,0,1,.537,0l10.854,6.017a.554.554,0,0,1-.268,1.039Zm-19.566-1.107h17.424l-8.712-4.83Z" transform="translate(-3710.331 -5747.327)"/></g><g transform="translate(3712.62 5753.47)"><path class="b" d="M3713.125,5761.175a.554.554,0,0,1-.554-.555v-6.767a.554.554,0,1,1,1.108,0v6.767A.554.554,0,0,1,3713.125,5761.175Z" transform="translate(-3712.571 -5753.299)"/><g transform="translate(2.233)"><path class="b" d="M3715.341,5761.175a.554.554,0,0,1-.554-.555v-6.767a.554.554,0,1,1,1.108,0v6.767A.554.554,0,0,1,3715.341,5761.175Z" transform="translate(-3714.787 -5753.299)"/></g></g><g transform="translate(3720.101 5753.47)"><path class="b" d="M3720.55,5761.175a.554.554,0,0,1-.554-.555v-6.767a.554.554,0,1,1,1.108,0v6.767A.554.554,0,0,1,3720.55,5761.175Z" transform="translate(-3719.996 -5753.299)"/></g><g transform="translate(3722.334 5753.47)"><path class="b" d="M3722.767,5761.175a.554.554,0,0,1-.554-.555v-6.767a.554.554,0,1,1,1.109,0v6.767A.555.555,0,0,1,3722.767,5761.175Z" transform="translate(-3722.213 -5753.299)"/></g><g transform="translate(3727.583 5753.47)"><path class="b" d="M3727.976,5761.175a.554.554,0,0,1-.554-.555v-6.767a.554.554,0,1,1,1.107,0v6.767A.554.554,0,0,1,3727.976,5761.175Z" transform="translate(-3727.422 -5753.299)"/></g><g transform="translate(3729.815 5753.47)"><path class="b" d="M3730.192,5761.175a.554.554,0,0,1-.554-.555v-6.767a.554.554,0,1,1,1.107,0v6.767A.554.554,0,0,1,3730.192,5761.175Z" transform="translate(-3729.638 -5753.299)"/></g><g transform="translate(3712.686 5741.881)"><path class="b" d="M3730.254,5753.111a.554.554,0,0,1-.554-.553v-9.247a.406.406,0,0,0-.407-.406h-15.142a.407.407,0,0,0-.408.406v9.247a.554.554,0,0,1-1.107,0v-9.247a1.517,1.517,0,0,1,1.515-1.515h15.142a1.517,1.517,0,0,1,1.515,1.515v9.247A.554.554,0,0,1,3730.254,5753.111Z" transform="translate(-3712.636 -5741.796)"/></g><g transform="translate(3714.676 5743.871)"><path class="c" d="M3714.611,5743.771v6.428l6.431-3.566a1.373,1.373,0,0,1,1.331,0l6.431,3.566v-6.428Z" transform="translate(-3714.611 -5743.771)"/></g><g transform="translate(3717.925 5737.283)"><path class="b" d="M3724.976,5742.939a.555.555,0,0,1-.554-.555v-3.458a.586.586,0,0,0-.586-.586h-4.305a.586.586,0,0,0-.586.586v3.458a.554.554,0,1,1-1.108,0v-3.458a1.7,1.7,0,0,1,1.695-1.694h4.305a1.7,1.7,0,0,1,1.694,1.694v3.458A.555.555,0,0,1,3724.976,5742.939Z" transform="translate(-3717.836 -5737.232)"/></g><g transform="translate(3721.217 5730.38)"><path class="b" d="M3721.658,5738.392a.555.555,0,0,1-.554-.554v-6.5a.555.555,0,0,1,.91-.426,1.279,1.279,0,0,0,.959.207,5.011,5.011,0,0,0,1.126-.329l.151-.056a4.659,4.659,0,0,1,1.594-.353h.022a3.656,3.656,0,0,1,1.546.4.556.556,0,0,1,.316.5v3.6a.552.552,0,0,1-.791.5,2.592,2.592,0,0,0-1.081-.29h-.013a3.619,3.619,0,0,0-1.21.286l-.155.059a6.007,6.007,0,0,1-1.367.387.561.561,0,0,1-.62-.48.555.555,0,0,1,.481-.619,5.067,5.067,0,0,0,1.119-.327l.16-.058a4.606,4.606,0,0,1,1.593-.354h.022a3.062,3.062,0,0,1,.754.1v-2.439a2.245,2.245,0,0,0-.764-.156,4.493,4.493,0,0,0-1.224.287l-.144.054a6.031,6.031,0,0,1-1.378.391,2.724,2.724,0,0,1-.9-.028v5.647A.554.554,0,0,1,3721.658,5738.392Z" transform="translate(-3721.104 -5730.38)"/></g><g transform="translate(3729.75 5745.797)"><path class="b" d="M3736.858,5761.232a.554.554,0,0,1-.555-.555V5747.67a.879.879,0,0,0-.879-.878h-5.3a.554.554,0,1,1,0-1.108h5.3a1.989,1.989,0,0,1,1.988,1.986v13.008A.555.555,0,0,1,3736.858,5761.232Z" transform="translate(-3729.573 -5745.684)"/></g><g transform="translate(3705.955 5745.797)"><path class="b" d="M3706.509,5761.232a.553.553,0,0,1-.554-.555V5747.67a1.989,1.989,0,0,1,1.987-1.986h5.3a.554.554,0,0,1,0,1.108h-5.3a.88.88,0,0,0-.879.878v13.008A.554.554,0,0,1,3706.509,5761.232Z" transform="translate(-3705.956 -5745.684)"/></g><g transform="translate(3710.702 5760.239)"><path class="b" d="M3732.223,5761.125h-21a.554.554,0,1,1,0-1.107h21a.554.554,0,1,1,0,1.107Z" transform="translate(-3710.667 -5760.018)"/></g><g transform="translate(3715.561 5762.444)"><path class="b" d="M3727.327,5763.315h-11.283a.554.554,0,1,1,0-1.108h11.283a.554.554,0,1,1,0,1.108Z" transform="translate(-3715.49 -5762.207)"/></g></g><text class="d" transform="translate(68.999 147.359)"><tspan x="0" y="0">Company</tspan></text></g></svg>