<svg xmlns="http://www.w3.org/2000/svg" width="44" height="44" viewBox="0 0 44 44"><defs><style>.a{fill:none;}.b{fill:#115c32;}</style></defs><g transform="translate(0 0)"><rect class="a" width="44" height="44" transform="translate(0 44) rotate(-90)"/><g transform="translate(13.981 11.998)"><path class="b" d="M1528.517,634a8.026,8.026,0,0,0-8.017,8.017,7.887,7.887,0,0,0,.141,1.508c0,.027.022.115.053.269a8.155,8.155,0,0,0,.538,1.579,22.473,22.473,0,0,0,6.932,8.5.573.573,0,0,0,.357.128.561.561,0,0,0,.353-.128,22.465,22.465,0,0,0,6.932-8.5,7.992,7.992,0,0,0,.538-1.579c.031-.154.049-.242.053-.269a8.3,8.3,0,0,0,.141-1.508,8.035,8.035,0,0,0-8.021-8.017Zm6.756,9.327,0,.026-.036.181v.009a6.507,6.507,0,0,1-.467,1.362l-.009.018a20.931,20.931,0,0,1-6.24,7.783,21.008,21.008,0,0,1-6.244-7.783l-.009-.018a7.014,7.014,0,0,1-.468-1.362v-.009c-.022-.1-.03-.163-.035-.181l0-.031a6.885,6.885,0,1,1,13.516,0Zm0,0" transform="translate(-1520.5 -633.997)"/><path class="b" d="M1526.256,634.681a5.091,5.091,0,1,0,5.089,5.089,5.1,5.1,0,0,0-5.089-5.089Zm0,9.049a3.958,3.958,0,1,1,3.956-3.96,3.962,3.962,0,0,1-3.956,3.96Zm0,0" transform="translate(-1518.239 -631.665)"/></g></g></svg>