<svg xmlns="http://www.w3.org/2000/svg" width="28.595" height="26.245" viewBox="0 0 28.595 26.245"><defs><style>.a{fill:#fff;stroke:#fff;stroke-miterlimit:10;stroke-width:0.236px;}</style></defs><path class="a" d="M122.29,1016.936a1.826,1.826,0,0,0-2.521-.487l-3.451,2.309-.009-7.1,1.1,1.029a1.512,1.512,0,0,0,2.067-2.207l-10.082-9.445a1.516,1.516,0,0,0-2.071,0l-3.071,2.894v-.339a.727.727,0,0,0-.727-.724l-2.3,0a.726.726,0,0,0-.725.727l.006,3.865-3.235,3.047a1.512,1.512,0,0,0,.992,2.612H98.3a1.5,1.5,0,0,0,1.035-.412l1.1-1.032.005,3.225a8.668,8.668,0,0,0-1.131-.076h-.6v-.153a1.554,1.554,0,0,0-1.553-1.552H95.874a1.553,1.553,0,0,0-1.552,1.552v9.5a1.554,1.554,0,0,0,1.552,1.553h1.284a1.555,1.555,0,0,0,1.551-1.481l5.758,2.181.04.013a2.906,2.906,0,0,0,.787.112,2.651,2.651,0,0,0,.418-.033l8.641-1.246a4.3,4.3,0,0,0,2.044-.915l5.6-5.033A1.825,1.825,0,0,0,122.29,1016.936Zm-20.817-13.091,1.8,0,0,1.005-1.8,1.691Zm6.552-.664-9.356,8.814a.552.552,0,0,1-.383.145.533.533,0,0,1-.349-.922l10.055-9.473a.534.534,0,0,1,.731,0l10.082,9.445a.53.53,0,0,1,.169.372.539.539,0,0,1-.144.383.546.546,0,0,1-.755.024l-9.381-8.788A.489.489,0,0,0,108.025,1003.181Zm6.491,17.831Zm-4.388-3.626-3.5-.4-.006-4.44,3.5-.005Zm3.043,2.682-.025-.245a2.618,2.618,0,0,0-2.04-2.309l-.007-5.141a.816.816,0,0,0-.816-.812l-3.823.005a.814.814,0,0,0-.813.815l.006,4.433a7.539,7.539,0,0,1-2.024-.82q-.129-.074-.258-.144l-.134-.07-.128-.066-.265-.125-.14-.061c-.043-.019-.086-.038-.129-.055l-.146-.059-.128-.049-.146-.053-.136-.047-.139-.045-.151-.046-.129-.037-.17-.045-.012,0-.006-4.334,6.949-6.547,6.968,6.528.012,8.676-1.072.717Zm-11.649-3.935.024.007c.071.022.144.046.215.07l.028-.083-.006.091c.149.051.3.108.441.167l.025.011c.072.03.144.062.221.1s.139.065.206.1l.025.013c.067.033.133.068.217.113l.019.011c.067.036.132.072.2.111a8.508,8.508,0,0,0,3.134,1.087l4.493.518.07.012a1.643,1.643,0,0,1,1.29,1.186,1.741,1.741,0,0,1,.051.278l.007.074-8.318-.729a.492.492,0,0,0-.357.113.483.483,0,0,0-.173.332.487.487,0,0,0,.445.529l8.921.782,1.677.094a.325.325,0,0,0,.068,0l.022,0a.328.328,0,0,0,.054-.01l.022-.005a.429.429,0,0,0,.049-.018l.021-.008a.533.533,0,0,0,.066-.037l5.637-3.772a.843.843,0,0,1,1.028,1.332l-5.569,5.009a3.337,3.337,0,0,1-1.57.7l-8.642,1.246a1.813,1.813,0,0,1-.765-.047l-6.085-2.305v-7.4h.6a7.588,7.588,0,0,1,1.709.2l.064.015c.068.016.137.034.223.057C101.373,1016.088,101.441,1016.108,101.522,1016.133Zm12.886,4.9ZM95.3,1014.671a.575.575,0,0,1,.574-.574h1.284a.575.575,0,0,1,.575.574v9.5a.576.576,0,0,1-.575.575H95.874a.575.575,0,0,1-.574-.575Z" transform="translate(-94.204 -1000.422)"/></svg>