<svg xmlns="http://www.w3.org/2000/svg" width="44" height="44" viewBox="0 0 44 44"><defs><style>.a{fill:none;}.b{fill:#115c32;}.c{fill:#fff;}</style></defs><g transform="translate(-315 -641.993)"><rect class="a" width="44" height="44" transform="translate(315 685.993) rotate(-90)"/><circle class="b" cx="11" cy="11" r="11" transform="translate(337 652.993)"/><path class="c" d="M282.5,222.232a.74.74,0,0,0-1.049,0l-5.481,5.481-1.989-1.989a.73.73,0,0,0-.525-.221h0a.738.738,0,0,0-.525.221.748.748,0,0,0,0,1.05l2.514,2.513a.733.733,0,0,0,.525.216h0a.744.744,0,0,0,.525-.216l6.006-6.006A.748.748,0,0,0,282.5,222.232Z" transform="translate(70.281 438.233)"/></g></svg>