<svg xmlns="http://www.w3.org/2000/svg" xmlns:xlink="http://www.w3.org/1999/xlink" width="172.578" height="206.69" viewBox="0 0 172.578 206.69"><defs><style>.a{fill:url(#a);}.b{mix-blend-mode:multiply;isolation:isolate;fill:url(#b);}.c{fill:#bdef35;}.d{fill:#93d500;}.e{fill:#115c32;}</style><linearGradient id="a" x1="0.166" y1="0.088" x2="0.643" y2="0.677" gradientUnits="objectBoundingBox"><stop offset="0" stop-color="#bdef35"/><stop offset="1" stop-color="#93d500"/></linearGradient><linearGradient id="b" x1="0" y1="0.5" x2="1" y2="0.5" xlink:href="#a"/></defs><g transform="translate(-3375.211 -5247)"><rect class="a" width="106.981" height="106.981" rx="23.996" transform="translate(3408.01 5247)"/><path class="b" d="M3429.122,5327.992l28.062,15.133a8.669,8.669,0,0,0,8.727-.143l29.047-16.795a7.98,7.98,0,0,0-.591-14.06l-29.528-16.527a8.668,8.668,0,0,0-8.638.492l-27.581,18.189A7.97,7.97,0,0,0,3429.122,5327.992Z"/><path class="c" d="M3435.7,5319.306a6.937,6.937,0,0,1-3.448-5.994l.041-25.765a6.934,6.934,0,0,1,3.466-5.984l22.334-12.848a6.934,6.934,0,0,1,6.915.011l22.294,12.918c.813.471,1.507,1.1,3.412,3.6l-24.2,12.749c-2.805-.983-4.025.11-4.962,1.4a10.874,10.874,0,0,0-3.427-3.239l-5.285-2.956a1.988,1.988,0,0,0-2.725.692c-.562.943.318.962,1.261,1.523l4.716,4.158a6.939,6.939,0,0,1,3.378,5.994l-.126,16.581a1.988,1.988,0,0,0,.053.465l-.043,10.212a6.962,6.962,0,0,1-1.364-.6Z"/><path class="d" d="M3490.708,5313.4a6.931,6.931,0,0,1-3.466,5.983l-22.334,12.848a6.9,6.9,0,0,1-1.575.659l.115-27.155c.019-2.514,1.4-4.822,3.667-8.06l23.7-12.487c-.07,2.181-.065,2.313-.065,2.446Z"/><path class="e" d="M3461.335,5325.053h-.022a2.892,2.892,0,0,1-2.87-2.913l.127-16.581a6.033,6.033,0,0,0-2.889-5.182l-25.916-13.968a2.892,2.892,0,0,1,2.744-5.091l25.975,14c.036.019.071.039.106.06a11.837,11.837,0,0,1,5.763,10.225l-.126,16.581A2.893,2.893,0,0,1,3461.335,5325.053Z"/><path class="e" d="M3461.335,5338.067h-.012a2.892,2.892,0,0,1-2.88-2.9l.125-29.453a11.8,11.8,0,0,1,6.162-10.282l25.744-14.1a2.891,2.891,0,1,1,2.778,5.072L3467.5,5300.5a6.012,6.012,0,0,0-3.148,5.239l-.125,29.443A2.893,2.893,0,0,1,3461.335,5338.067Z"/><path class="e" d="M3461.46,5338.03a11.792,11.792,0,0,1-5.913-1.584l-22.294-12.918a11.829,11.829,0,0,1-5.882-10.223l.041-25.766a11.825,11.825,0,0,1,5.913-10.205l22.334-12.849a11.823,11.823,0,0,1,11.794.019l22.294,12.917a11.832,11.832,0,0,1,5.882,10.224l-.041,25.766a11.826,11.826,0,0,1-5.913,10.205l-22.334,12.848A11.794,11.794,0,0,1,3461.46,5338.03Zm.08-69.33a6,6,0,0,0-3,.8l-22.334,12.848a6.025,6.025,0,0,0-3.014,5.2l-.04,25.765a6.028,6.028,0,0,0,3,5.211l22.294,12.918a6.027,6.027,0,0,0,6.011.009l22.334-12.848h0a6.026,6.026,0,0,0,3.014-5.2l.04-25.766a6.031,6.031,0,0,0-3-5.211l-22.294-12.917A6.006,6.006,0,0,0,3461.54,5268.7Z"/><path class="e" d="M3477.915,5304.1a2.892,2.892,0,0,1-2.89-2.845l-.125-7.709-30.088-17.864a2.892,2.892,0,0,1,2.952-4.973l31.478,18.689a2.892,2.892,0,0,1,1.415,2.44l.15,9.324a2.891,2.891,0,0,1-2.844,2.938Z"/><path class="e" d="M3375.211,5434.305v-4.4H3394.7v4.4h-7.128v19.385h-5.229v-19.385Z"/><path class="e" d="M3406.817,5429.909l8.894,23.781h-5.43l-1.8-5.3h-8.893l-1.865,5.3h-5.3l9.027-23.781Zm.3,14.588-3-8.726h-.067l-3.1,8.726Z"/><path class="e" d="M3423,5429.909v19.385h11.59v4.4h-16.82v-23.781Z"/><path class="e" d="M3449.38,5429.909l8.893,23.781h-5.429l-1.8-5.3h-8.893l-1.865,5.3h-5.3l9.026-23.781Zm.3,14.588-3-8.726h-.067l-3.1,8.726Z"/><path class="e" d="M3471.527,5429.909a14.857,14.857,0,0,1,3.1.3,6.693,6.693,0,0,1,2.4.983,4.559,4.559,0,0,1,1.549,1.815,6.374,6.374,0,0,1,.55,2.8,5.153,5.153,0,0,1-.833,2.981,6.033,6.033,0,0,1-2.4,1.981,5.719,5.719,0,0,1,3.281,2.216,7.274,7.274,0,0,1,.383,6.928,6.071,6.071,0,0,1-1.882,2.148,8.342,8.342,0,0,1-2.7,1.232,12.131,12.131,0,0,1-3.115.4h-11.524v-23.781Zm-.666,9.626a3.763,3.763,0,0,0,2.3-.667,2.518,2.518,0,0,0,.9-2.165,2.76,2.76,0,0,0-.3-1.365,2.224,2.224,0,0,0-.8-.833,3.379,3.379,0,0,0-1.15-.417,7.711,7.711,0,0,0-1.348-.116h-4.9v5.563Zm.3,10.092a6.975,6.975,0,0,0,1.466-.15,3.6,3.6,0,0,0,1.232-.5,2.52,2.52,0,0,0,.849-.949,3.255,3.255,0,0,0,.317-1.532,3.075,3.075,0,0,0-1.033-2.615,4.409,4.409,0,0,0-2.731-.783h-5.7v6.529Z"/><path class="e" d="M3481.183,5429.909h5.895l5.563,9.392,5.529-9.392H3504l-8.827,14.655v9.126h-5.229v-9.259Z"/><path class="e" d="M3523.781,5429.909v4.4h-12.557v5.1h11.525v4.064h-11.525v5.829h12.823v4.4H3506v-23.781Z"/><path class="e" d="M3532.8,5429.909v9.126h9.626v-9.126h5.229v23.781h-5.229v-10.259H3532.8v10.259h-5.229v-23.781Z"/><path class="e" d="M3389.2,5388.8v-2.088a.429.429,0,0,1,.486-.486h3.108a.43.43,0,0,1,.486.486v16.146a2.835,2.835,0,0,0,.558,2.016,2.426,2.426,0,0,0,1.773.558h2.137a1.718,1.718,0,0,1,1.943,1.943c0,.81-.154,1.319-.461,1.53a2.686,2.686,0,0,1-1.482.315h-2.865a6.6,6.6,0,0,1-3.716-.9,4.516,4.516,0,0,1-1.773-2.987,6.326,6.326,0,0,1-2.331,1.311,9.619,9.619,0,0,1-2.963.437,11.2,11.2,0,0,1-3.521-.534,7.341,7.341,0,0,1-4.687-4.4,10.48,10.48,0,0,1-.68-3.959,10.164,10.164,0,0,1,.777-4.247,8.265,8.265,0,0,1,2.04-2.987,7.645,7.645,0,0,1,2.938-1.651,11.85,11.85,0,0,1,3.473-.51Zm-5.051,14.5a4.44,4.44,0,0,0,3.909-1.627,6.76,6.76,0,0,0,1.142-4.223v-4.856h-4.76a5.354,5.354,0,0,0-3.716,1.286c-.955.859-1.432,2.086-1.432,4.32a5.232,5.232,0,0,0,1.262,3.813A4.81,4.81,0,0,0,3384.148,5403.292Zm-4.226-20.372a.43.43,0,0,1-.486-.486v-3.545a.43.43,0,0,1,.486-.486h3.3a.43.43,0,0,1,.486.486v3.545a.43.43,0,0,1-.486.486Zm5.926,0a.429.429,0,0,1-.486-.486v-3.545a.43.43,0,0,1,.486-.486h3.3a.43.43,0,0,1,.486.486v3.545a.43.43,0,0,1-.486.486Z"/><path class="e" d="M3397.795,5409.217a1.65,1.65,0,0,1-1.311-.412,2.3,2.3,0,0,1-.34-1.433,2.638,2.638,0,0,1,.316-1.579,1.778,1.778,0,0,1,1.335-.364h42a2.3,2.3,0,0,1,1.457.389,1.721,1.721,0,0,1,.486,1.408,2.081,2.081,0,0,1-.462,1.6,2.288,2.288,0,0,1-1.481.388Z"/><path class="e" d="M3440.137,5409.217a2.539,2.539,0,0,1-1.457-.34,1.568,1.568,0,0,1-.485-1.359,2.268,2.268,0,0,1,.461-1.652,2.106,2.106,0,0,1,1.481-.437h3.3a2.428,2.428,0,0,0,1.773-.558,2.834,2.834,0,0,0,.559-2.016v-9.189a.428.428,0,0,1,.485-.485h3.109a.429.429,0,0,1,.485.485v8.46a2.814,2.814,0,0,0,1.19,2.477,5.483,5.483,0,0,0,3.182.826h.582a2.208,2.208,0,0,1,1.458.413,1.733,1.733,0,0,1,.485,1.384q0,1.263-.461,1.627a2.4,2.4,0,0,1-1.482.364h-1.068a5.621,5.621,0,0,1-2.72-.631,4.241,4.241,0,0,1-1.8-1.894q-1.215,2.526-5.051,2.525Zm2.477,9.035a.429.429,0,0,1-.485-.486v-3.546a.428.428,0,0,1,.485-.485h3.3a.429.429,0,0,1,.486.485v3.546a.43.43,0,0,1-.486.486Zm5.926,0a.43.43,0,0,1-.486-.486v-3.546a.429.429,0,0,1,.486-.485h3.3a.429.429,0,0,1,.486.485v3.546a.43.43,0,0,1-.486.486Z"/><path class="e" d="M3454.853,5409.217a1.65,1.65,0,0,1-1.311-.412,2.3,2.3,0,0,1-.34-1.433,2.638,2.638,0,0,1,.316-1.579,1.778,1.778,0,0,1,1.335-.364h5.343c.648,0,11.607.13,11.931.389a1.718,1.718,0,0,1,.486,1.408,2.082,2.082,0,0,1-.461,1.6c-.308.259-11.276.388-11.956.388Z"/><path class="e" d="M3460.244,5409.217a1.649,1.649,0,0,1-1.311-.412,2.3,2.3,0,0,1-.34-1.433,2.638,2.638,0,0,1,.316-1.579,1.779,1.779,0,0,1,1.335-.364h15.818a2.3,2.3,0,0,1,1.456.389,1.718,1.718,0,0,1,.486,1.408,2.081,2.081,0,0,1-.461,1.6,2.289,2.289,0,0,1-1.481.388Z"/><path class="e" d="M3476.4,5409.217a2.538,2.538,0,0,1-1.457-.34,1.565,1.565,0,0,1-.486-1.359,2.268,2.268,0,0,1,.461-1.652,2.11,2.11,0,0,1,1.482-.437h3.06a2.428,2.428,0,0,0,1.773-.558,2.834,2.834,0,0,0,.558-2.016v-9.189a.429.429,0,0,1,.486-.485h3.108a.429.429,0,0,1,.486.485v8.46a2.811,2.811,0,0,0,1.19,2.477,5.48,5.48,0,0,0,3.181.826h.583c.648,0,6.37.138,6.7.413a1.733,1.733,0,0,1,.485,1.384q0,1.263-.461,1.627c-.308.243-6.039.364-6.719.364h-1.068a5.621,5.621,0,0,1-2.72-.631,4.235,4.235,0,0,1-1.8-1.894q-1.215,2.526-5.051,2.525Zm5.877,8.889a.43.43,0,0,1-.486-.486v-3.546a.429.429,0,0,1,.486-.485h3.3a.429.429,0,0,1,.486.485v3.546a.43.43,0,0,1-.486.486Z"/><path class="e" d="M3490.437,5409.217a2.539,2.539,0,0,1-1.457-.34,1.568,1.568,0,0,1-.486-1.359,2.262,2.262,0,0,1,.462-1.652,2.105,2.105,0,0,1,1.481-.437h8.3a2.429,2.429,0,0,0,1.773-.558,2.835,2.835,0,0,0,.559-2.016v-22.989a.429.429,0,0,1,.485-.486h3.109a.431.431,0,0,1,.486.486v22.26a2.813,2.813,0,0,0,1.189,2.477,5.485,5.485,0,0,0,3.182.826h.583a2.206,2.206,0,0,1,1.457.413,1.734,1.734,0,0,1,.486,1.384,2.074,2.074,0,0,1-.462,1.627,2.4,2.4,0,0,1-1.481.364h-1.069a5.621,5.621,0,0,1-2.72-.631,4.236,4.236,0,0,1-1.8-1.894q-1.215,2.526-5.051,2.525Z"/><path class="e" d="M3510.1,5409.217a1.649,1.649,0,0,1-1.311-.412,2.3,2.3,0,0,1-.34-1.433,2.631,2.631,0,0,1,.316-1.579,1.776,1.776,0,0,1,1.335-.364h5.343a2.3,2.3,0,0,1,1.457.389,1.721,1.721,0,0,1,.486,1.408,2.078,2.078,0,0,1-.462,1.6,2.288,2.288,0,0,1-1.481.388Z"/><path class="e" d="M3515.442,5409.217a2.541,2.541,0,0,1-1.458-.34,1.568,1.568,0,0,1-.485-1.359,2.268,2.268,0,0,1,.461-1.652,2.107,2.107,0,0,1,1.482-.437h3.06a2.426,2.426,0,0,0,1.772-.558,2.834,2.834,0,0,0,.559-2.016v-22.941a.428.428,0,0,1,.485-.485h3.109a.43.43,0,0,1,.486.485v11.575a29.187,29.187,0,0,1,5.294-2.137,20.673,20.673,0,0,1,5.974-.874,14.866,14.866,0,0,1,5.634.923,8.768,8.768,0,0,1,5.44,6.168,17.781,17.781,0,0,1,.534,4.42,19.507,19.507,0,0,1-.413,4.347,7.1,7.1,0,0,1-1.287,2.866,4.73,4.73,0,0,1-2.283,1.554,10.8,10.8,0,0,1-3.351.461h-16.32a1.957,1.957,0,0,1-1.651-.631,7.093,7.093,0,0,1-3.254.631Zm20.447-16.951a17.007,17.007,0,0,0-2.962.267,25.269,25.269,0,0,0-2.939.7q-1.433.437-2.72.971t-2.355,1.069v7.82a11,11,0,0,1-.243,2.331h14.377a8.492,8.492,0,0,0,2.234-.243,2.546,2.546,0,0,0,1.36-.85,3.561,3.561,0,0,0,.655-1.7,18.636,18.636,0,0,0,.171-2.792,12.836,12.836,0,0,0-.365-3.206,5.584,5.584,0,0,0-1.238-2.38,5.522,5.522,0,0,0-2.332-1.482A11.179,11.179,0,0,0,3535.889,5392.266Z"/></g></svg>