<svg xmlns="http://www.w3.org/2000/svg" width="21.858" height="21.042" viewBox="0 0 21.858 21.042"><defs><style>.a{fill:none;stroke:#fff;stroke-linecap:round;stroke-linejoin:round;}</style></defs><g transform="translate(-334.914 -51.855)"><g transform="translate(335.434 52.355)"><path class="a" d="M1418.383,104.735l2.508-2.084a1.187,1.187,0,0,0,.42-.9V96.717a1.178,1.178,0,0,1,.265-.746l7.453-9.069a1.172,1.172,0,0,0-.9-1.916h-18.474a1.172,1.172,0,0,0-.9,1.916l7.453,9.069a1.176,1.176,0,0,1,.265.746v7.117A1.171,1.171,0,0,0,1418.383,104.735Z" transform="translate(-1408.477 -84.986)"/><line class="a" x2="11.715" transform="translate(2.33 4.039)"/></g></g></svg>