<svg xmlns="http://www.w3.org/2000/svg" width="44" height="44" viewBox="0 0 44 44"><defs><style>.a{fill:none;}.b{fill:#115c32;}</style></defs><g transform="translate(0 0)"><rect class="a" width="44" height="44" transform="translate(0 44) rotate(-90)"/><g transform="translate(12.001 12.002)"><path class="b" d="M1539.519,610.925l-6.332-6.332a1.821,1.821,0,0,0-2.567,0L1520.58,614.63a1.825,1.825,0,0,0,0,2.571l.78.78h0l5.248,5.248h-.723a.417.417,0,1,0,0,.833h8.33a.417.417,0,1,0,0-.833h-4.431l9.736-9.736A1.813,1.813,0,0,0,1539.519,610.925Zm-.59,1.98-10.037,10.036a.973.973,0,0,1-.692.287h0a.966.966,0,0,1-.692-.287l-5.256-5.256,9.64-9.64a.418.418,0,0,0-.591-.591l-9.64,9.64-.485-.485a.985.985,0,0,1,0-1.389l10.037-10.041a.995.995,0,0,1,1.389,0l2.253,2.258-9.64,9.64a.413.413,0,0,0,0,.586.408.408,0,0,0,.3.124.414.414,0,0,0,.3-.124l9.64-9.64,3.488,3.493A.983.983,0,0,1,1538.929,612.905Z" transform="translate(-1520.051 -604.064)"/><path class="b" d="M1525.464,606.884a.426.426,0,0,0-.591,0l-3.277,3.281a.418.418,0,0,0,0,.591.42.42,0,0,0,.587,0l3.281-3.281A.418.418,0,0,0,1525.464,606.884Z" transform="translate(-1515.198 -594.854)"/><path class="b" d="M1523.208,607.593l-1.344,1.345a.418.418,0,0,0,0,.591.424.424,0,0,0,.3.124.431.431,0,0,0,.295-.124l1.341-1.345a.418.418,0,0,0,0-.591A.413.413,0,0,0,1523.208,607.593Z" transform="translate(-1514.288 -592.45)"/><path class="b" d="M1522.582,607.313l-.176.176a.421.421,0,0,0,0,.586.415.415,0,0,0,.3.124.406.406,0,0,0,.3-.124l.177-.176a.413.413,0,0,0,0-.586A.418.418,0,0,0,1522.582,607.313Z" transform="translate(-1512.427 -593.404)"/><path class="b" d="M1525.573,605.606a.427.427,0,0,0-.591,0l-1.768,1.768a.426.426,0,0,0,0,.591l1.182,1.177a.409.409,0,0,0,.586,0l1.769-1.768a.412.412,0,0,0,0-.586Zm-.886,2.655-.587-.591,1.177-1.177.591.586Z" transform="translate(-1509.672 -599.212)"/><path class="b" d="M1523.212,605.557a.4.4,0,0,0,.291-.124l.176-.176a.418.418,0,0,0,0-.591.411.411,0,0,0-.586,0l-.177.176a.418.418,0,0,0,0,.591A.4.4,0,0,0,1523.212,605.557Z" transform="translate(-1510.697 -602.426)"/><path class="b" d="M1521.232,607.329l-.181.177a.425.425,0,0,0,0,.591.434.434,0,0,0,.3.124.425.425,0,0,0,.3-.124l.177-.176a.418.418,0,0,0,0-.591A.413.413,0,0,0,1521.232,607.329Z" transform="translate(-1517.043 -593.346)"/></g></g></svg>