<svg xmlns="http://www.w3.org/2000/svg" width="26.762" height="26.761" viewBox="0 0 26.762 26.761"><defs><style>.a{fill:#6e798a;}</style></defs><g transform="translate(-173.543 -13.235)"><g transform="translate(173.543 13.235)"><path class="a" d="M5038.8,6009.048a2.684,2.684,0,0,0-2.065-.779l-7.261.66a.837.837,0,0,0-.757.909.828.828,0,0,0,.909.756l7.232-.657a1,1,0,0,1,.76.293.975.975,0,0,1,.294.729l-.807,8.934-13.109,13.1-9.154-9.147,9.984-9.976a.836.836,0,0,0-1.183-1.182l-.52.519a.867.867,0,0,0-.34-.014,5.558,5.558,0,0,1-5.656-2.289c4.129-2.8,9.651,1.142,11.884,3.015a.83.83,0,0,0,.208.113,3.341,3.341,0,1,0,5.2-.608,3.433,3.433,0,0,0-4.113-.467.824.824,0,0,0-.223-.318c-2.622-2.2-9.27-6.866-14.4-2.75-.235.187-.569.632-.185,1.5a6.794,6.794,0,0,0,5.882,3.549l-8.321,8.314a.834.834,0,0,0,0,1.181l10.337,10.329a.835.835,0,0,0,1.183,0l13.913-13.9a.83.83,0,0,0,.242-.515l.837-9.265A2.663,2.663,0,0,0,5038.8,6009.048Zm-7.924,5.555a1.672,1.672,0,1,1,2.365,2.364,1.713,1.713,0,0,1-2.365,0,1.67,1.67,0,0,1,0-2.364Z" transform="translate(-5012.827 -6008.248)"/></g></g></svg>