<svg xmlns="http://www.w3.org/2000/svg" width="44" height="44" viewBox="0 0 44 44"><defs><style>.a,.b,.c{fill:none;}.b,.c{stroke-miterlimit:10;}.c{stroke:#115c32;}.d,.e{stroke:none;}.e{fill:#115c32;}</style></defs><g transform="translate(0 0)"><rect class="a" width="44" height="44" transform="translate(0 44) rotate(-90)"/><g transform="translate(14.739 12)"><g class="b" transform="translate(-1516.594 -585.73)"><path class="d" d="M1523.856,596.536a1.984,1.984,0,0,0-1.367,3.426v1.795a1.365,1.365,0,0,0,2.729,0v-1.795a1.984,1.984,0,0,0-1.363-3.426Z"/><path class="e" d="M 1523.8564453125 597.535888671875 C 1523.3115234375 597.535888671875 1522.8681640625 597.9794311523438 1522.8681640625 598.524658203125 C 1522.8681640625 598.7874755859375 1522.983276367188 599.0529174804688 1523.176025390625 599.2347412109375 L 1523.48974609375 599.53076171875 L 1523.48974609375 599.962158203125 L 1523.48974609375 601.7568359375 C 1523.48974609375 601.9569091796875 1523.654296875 602.11962890625 1523.8564453125 602.11962890625 C 1524.053100585938 602.11962890625 1524.21923828125 601.9534912109375 1524.21923828125 601.7568359375 L 1524.21923828125 599.962158203125 L 1524.21923828125 599.53076171875 L 1524.532958984375 599.2347412109375 C 1524.72607421875 599.0526733398438 1524.84130859375 598.7871704101562 1524.84130859375 598.524658203125 C 1524.84130859375 597.9794311523438 1524.399536132812 597.535888671875 1523.8564453125 597.535888671875 M 1523.8564453125 596.535888671875 C 1524.9501953125 596.535888671875 1525.84130859375 597.426513671875 1525.84130859375 598.524658203125 C 1525.84130859375 599.067138671875 1525.61181640625 599.591796875 1525.21923828125 599.962158203125 L 1525.21923828125 601.7568359375 C 1525.21923828125 602.506591796875 1524.6064453125 603.11962890625 1523.8564453125 603.11962890625 C 1523.10205078125 603.11962890625 1522.48974609375 602.506591796875 1522.48974609375 601.7568359375 L 1522.48974609375 599.962158203125 C 1522.09716796875 599.591796875 1521.8681640625 599.067138671875 1521.8681640625 598.524658203125 C 1521.8681640625 597.426513671875 1522.75830078125 596.535888671875 1523.8564453125 596.535888671875 Z"/></g><path class="c" d="M1533.989,602.285h-1.68v-3.7a4.463,4.463,0,0,0-3.956-4.484,4.382,4.382,0,0,0-4.8,4.357v3.823h-1.676a1.2,1.2,0,0,0-1.208,1.2v9.388a1.207,1.207,0,0,0,1.208,1.208h12.109a1.206,1.206,0,0,0,1.2-1.208v-9.388A1.2,1.2,0,0,0,1533.989,602.285Z" transform="translate(-1520.672 -594.086)"/><line class="c" x2="8.755" transform="translate(2.883 8.198)"/></g></g></svg>