<svg xmlns="http://www.w3.org/2000/svg" width="28.977" height="23.543" viewBox="0 0 28.977 23.543"><defs><style>.a{fill:#fff;}.b{fill:#6e798a;}</style></defs><g transform="translate(-245 -16.019)"><path class="a" d="M4954.147,6022.735v-5.49h-4.98v12.507h10.527v-7.018Z" transform="translate(-4688.509 -5994.945)"/><path class="b" d="M4960.4,6022.355c0-.007,0-.017-.006-.025l-2.716-5.433a.907.907,0,0,0-.81-.5h-7.244v-4.528a.906.906,0,0,0-.906-.905h-16.3a.905.905,0,0,0-.906.905v18.111a.905.905,0,0,0,.906.9h1.811a3.622,3.622,0,0,0,7.244,0h9.055a3.622,3.622,0,0,0,7.244,0h1.811a.9.9,0,0,0,.906-.9v-7.245A.9.9,0,0,0,4960.4,6022.355Zm-22.548,10.341a1.813,1.813,0,0,1-1.811-1.811,1.788,1.788,0,0,1,.106-.587l.008-.015a1.817,1.817,0,0,1,1.112-1.1l.082-.025a1.629,1.629,0,0,1,1.006,0l.081.025a1.819,1.819,0,0,1,1.113,1.1l.008.015a1.788,1.788,0,0,1,.106.587A1.813,1.813,0,0,1,4937.848,6032.7Zm9.96-3.622h-6.835c-.011-.019-.025-.035-.036-.054-.06-.1-.124-.195-.193-.288-.054-.073-.114-.141-.173-.209a3.616,3.616,0,0,0-.332-.338c-.085-.075-.171-.149-.262-.215-.074-.055-.15-.106-.228-.155a3.751,3.751,0,0,0-.364-.2c-.069-.033-.137-.066-.208-.1a3.689,3.689,0,0,0-.511-.159c-.06-.013-.12-.026-.181-.037a3.2,3.2,0,0,0-1.274,0c-.062.011-.121.024-.182.037a3.739,3.739,0,0,0-.51.159c-.071.029-.139.062-.208.1a3.536,3.536,0,0,0-.364.2c-.078.049-.154.1-.228.155a3.243,3.243,0,0,0-.262.215,3.5,3.5,0,0,0-.332.338c-.06.068-.119.136-.173.209a3.409,3.409,0,0,0-.193.288c-.011.019-.025.035-.036.054h-1.4v-16.3h14.488Zm7.245-10.866h1.251l1.811,3.622h-3.062Zm-.906,14.488a1.813,1.813,0,0,1-1.811-1.811,1.788,1.788,0,0,1,.106-.587l.008-.015a1.816,1.816,0,0,1,1.113-1.1l.081-.025a1.629,1.629,0,0,1,1.006,0l.082.025a1.819,1.819,0,0,1,1.112,1.1l.008.015a1.788,1.788,0,0,1,.106.587A1.813,1.813,0,0,1,4954.147,6032.7Zm4.528-3.622h-1.4c-.011-.019-.025-.035-.036-.054-.06-.1-.123-.195-.193-.288-.054-.073-.113-.141-.173-.209a3.5,3.5,0,0,0-.332-.338,3.243,3.243,0,0,0-.262-.215c-.074-.055-.15-.106-.228-.155a3.479,3.479,0,0,0-.364-.2c-.069-.033-.137-.066-.208-.1a3.7,3.7,0,0,0-.511-.159c-.06-.013-.119-.026-.181-.037a3.206,3.206,0,0,0-1.274,0c-.062.011-.121.024-.181.037a3.7,3.7,0,0,0-.511.159c-.071.029-.139.062-.208.1a3.58,3.58,0,0,0-.364.2c-.078.049-.154.1-.228.155-.091.066-.177.14-.262.215a3.556,3.556,0,0,0-.332.338c-.059.068-.119.136-.173.209-.069.093-.133.189-.193.288-.011.019-.025.035-.036.054h-1.4v-10.866h3.622v4.527a.906.906,0,0,0,.9.906h4.528Z" transform="translate(-4686.509 -5994.945)"/></g></svg>