<svg xmlns="http://www.w3.org/2000/svg" width="23.559" height="23.56" viewBox="0 0 23.559 23.56"><defs><style>.a{fill:none;stroke:#9aa1b1;}.b{fill:#9aa1b1;}</style></defs><g transform="translate(-89.049 -232.15)"><g transform="translate(89.549 232.65)"><ellipse class="a" cx="11.279" cy="11.28" rx="11.279" ry="11.28" transform="translate(0 0)"/></g><path class="b" d="M1381.718,97.31a.758.758,0,0,0-1.076,0l-5.616,5.616-2.039-2.039a.753.753,0,0,0-.538-.222h0a.752.752,0,0,0-.538.222.766.766,0,0,0,0,1.076l2.577,2.577a.752.752,0,0,0,.538.222h0a.753.753,0,0,0,.539-.222l6.154-6.159A.753.753,0,0,0,1381.718,97.31Z" transform="translate(-1275.987 143.006)"/></g></svg>