<svg xmlns="http://www.w3.org/2000/svg" width="343" height="30.353" viewBox="0 0 343 30.353"><defs><style>.a{fill:#bdef35;}.b,.c{fill:#115c32;}.b{font-size:17px;font-family:SFUIDisplay-Semibold, SF UI Display;font-weight:600;}.d{fill:#94cc00;}</style></defs><g transform="translate(-16 -125.766)"><rect class="a" width="343" height="26" rx="13" transform="translate(16 128)"/><text class="b" transform="translate(68.999 147.359)"><tspan x="0" y="0">Reseller</tspan></text><g transform="translate(-4506.991 -5780.508)"><g transform="translate(4536.327 5917.063)"><path class="c" d="M4560.249,5937.882h-21.521a2,2,0,0,1-2-2v-17.088a.475.475,0,1,1,.95,0v17.088a1.051,1.051,0,0,0,1.05,1.05h21.521a1.051,1.051,0,0,0,1.05-1.05v-17.088a.475.475,0,1,1,.95,0v17.088A2,2,0,0,1,4560.249,5937.882Z" transform="translate(-4536.728 -5918.318)"/></g><g transform="translate(4532.876 5906.274)"><path class="c" d="M4562.2,5916.126a3.1,3.1,0,0,0-5.245,0,3.095,3.095,0,0,0-5.245,0,3.1,3.1,0,0,0-5.245,0,3.1,3.1,0,0,0-5.246,0,3.1,3.1,0,0,0-5.245,0,3.1,3.1,0,0,1-3.1-3.1.474.474,0,0,1,.086-.271l4.375-6.279a.476.476,0,0,1,.39-.2h22.718a.474.474,0,0,1,.39.2l4.376,6.279a.477.477,0,0,1,.085.271A3.1,3.1,0,0,1,4562.2,5916.126Zm-2.622-3.572a.474.474,0,0,1,.475.475,2.148,2.148,0,0,0,4.291.143l-4.145-5.946h-22.222l-4.145,5.946a2.148,2.148,0,0,0,4.291-.143.475.475,0,0,1,.95,0,2.148,2.148,0,0,0,4.3,0,.475.475,0,0,1,.949,0,2.148,2.148,0,0,0,4.3,0,.475.475,0,0,1,.95,0,2.148,2.148,0,0,0,4.3,0,.475.475,0,0,1,.951,0,2.147,2.147,0,1,0,4.294,0A.475.475,0,0,1,4559.578,5912.554Z" transform="translate(-4532.876 -5906.274)"/></g><g transform="translate(4539.038 5917.063)"><path class="c" d="M4559.853,5931.4h-20.1v-12.6a.475.475,0,1,1,.95,0v11.655h18.2v-11.655a.475.475,0,1,1,.95,0Z" transform="translate(-4539.754 -5918.318)"/></g><g transform="translate(4544.417 5917.063)"><g transform="translate(6.709 5.097)"><path class="c" d="M4554.06,5930.823a.475.475,0,0,1,0-.95.87.87,0,0,0,.869-.869v-2.435a1.018,1.018,0,0,0-.374-.79l-1.132-.93a.475.475,0,0,1,.6-.735l1.132.931a1.961,1.961,0,0,1,.72,1.523V5929A1.821,1.821,0,0,1,4554.06,5930.823Z" transform="translate(-4553.25 -5924.008)"/></g><g transform="translate(0 5.097)"><path class="c" d="M4547.579,5930.823a1.822,1.822,0,0,1-1.819-1.819v-2.435a1.963,1.963,0,0,1,.721-1.523l1.132-.931a.475.475,0,0,1,.6.735l-1.132.93a1.02,1.02,0,0,0-.373.79V5929a.87.87,0,0,0,.868.869.475.475,0,1,1,0,.95Z" transform="translate(-4545.76 -5924.007)"/></g><g transform="translate(6.529 7.547)"><path class="c" d="M4553.528,5932.276a.475.475,0,0,1-.475-.475v-3.786l-.006-.794a.476.476,0,0,1,.472-.479h0a.475.475,0,0,1,.475.472l.007.8v3.79A.476.476,0,0,1,4553.528,5932.276Z" transform="translate(-4553.048 -5926.742)"/></g><g transform="translate(1.855 7.547)"><path class="c" d="M4548.3,5932.276a.474.474,0,0,1-.475-.475v-3.786l.005-.8a.475.475,0,0,1,.475-.472h0a.476.476,0,0,1,.472.479l-.006.8v3.783A.475.475,0,0,1,4548.3,5932.276Z" transform="translate(-4547.83 -5926.742)"/></g><g transform="translate(1.842)"><path class="c" d="M4550.644,5923.971a2.827,2.827,0,1,1,2.827-2.827A2.831,2.831,0,0,1,4550.644,5923.971Zm0-4.7a1.877,1.877,0,1,0,1.876,1.877A1.879,1.879,0,0,0,4550.644,5919.268Z" transform="translate(-4547.816 -5918.318)"/></g></g><g transform="translate(4550.963 5928.025)"><path class="c" d="M4554.041,5931.5h-.5a.475.475,0,1,1,0-.95h.5a.475.475,0,1,1,0,.95Z" transform="translate(-4553.067 -5930.555)"/></g><g transform="translate(4545.761 5928.025)"><path class="c" d="M4548.234,5931.5h-.5a.475.475,0,1,1,0-.95h.5a.475.475,0,0,1,0,.95Z" transform="translate(-4547.26 -5930.555)"/></g><g transform="translate(4538.159 5930.812)"><path class="d" d="M4538.94,5937.649h21.521a.168.168,0,0,0,.167-.168v-3.815a37.089,37.089,0,0,1-21.856,0v3.815A.168.168,0,0,0,4538.94,5937.649Z" transform="translate(-4538.773 -5933.665)"/></g></g></g></svg>