<svg xmlns="http://www.w3.org/2000/svg" width="36.192" height="33.883" viewBox="0 0 36.192 33.883"><defs><style>.a{fill:#115c32;}.b{fill:#94cc00;}</style></defs><g transform="translate(-4532.876 -5906.274)"><path class="a" d="M4562.984,5940.157H4538.96a2.235,2.235,0,0,1-2.232-2.233v-19.076a.53.53,0,1,1,1.06,0v19.076a1.173,1.173,0,0,0,1.172,1.172h24.024a1.173,1.173,0,0,0,1.172-1.172v-19.076a.53.53,0,1,1,1.06,0v19.076A2.235,2.235,0,0,1,4562.984,5940.157Z"/><path class="a" d="M4565.61,5917.272a3.455,3.455,0,0,0-5.855,0,3.455,3.455,0,0,0-5.855,0,3.455,3.455,0,0,0-5.855,0,3.456,3.456,0,0,0-5.856,0,3.455,3.455,0,0,0-5.855,0,3.463,3.463,0,0,1-3.458-3.458.528.528,0,0,1,.1-.3l4.885-7.01a.533.533,0,0,1,.435-.227h25.36a.531.531,0,0,1,.435.227l4.885,7.01a.528.528,0,0,1,.1.3A3.462,3.462,0,0,1,4565.61,5917.272Zm-2.927-3.988a.53.53,0,0,1,.53.53,2.4,2.4,0,0,0,4.789.159l-4.627-6.638h-24.806l-4.627,6.638a2.4,2.4,0,0,0,4.79-.159.53.53,0,0,1,1.06,0,2.4,2.4,0,0,0,4.795,0,.53.53,0,0,1,1.06,0,2.4,2.4,0,0,0,4.795,0,.53.53,0,0,1,1.06,0,2.4,2.4,0,0,0,4.795,0,.531.531,0,0,1,1.061,0,2.4,2.4,0,0,0,4.794,0A.531.531,0,0,1,4562.683,5913.284Z"/><path class="a" d="M4562.19,5932.919h-22.436v-14.071a.53.53,0,1,1,1.06,0v13.011h20.316v-13.011a.53.53,0,1,1,1.06,0Z"/><path class="a" d="M4554.154,5931.615a.53.53,0,0,1,0-1.06.971.971,0,0,0,.97-.97v-2.718a1.137,1.137,0,0,0-.417-.881l-1.264-1.038a.531.531,0,0,1,.673-.82l1.264,1.039a2.19,2.19,0,0,1,.8,1.7v2.718A2.033,2.033,0,0,1,4554.154,5931.615Z"/><path class="a" d="M4547.79,5931.615a2.033,2.033,0,0,1-2.03-2.03v-2.718a2.192,2.192,0,0,1,.8-1.7l1.264-1.039a.53.53,0,0,1,.673.82l-1.264,1.038a1.138,1.138,0,0,0-.416.881v2.718a.971.971,0,0,0,.969.97.53.53,0,1,1,0,1.06Z"/><path class="a" d="M4553.584,5932.919a.53.53,0,0,1-.53-.53v-4.226l-.006-.887a.53.53,0,0,1,.526-.534h0a.53.53,0,0,1,.53.527l.007.89v4.23A.531.531,0,0,1,4553.584,5932.919Z"/><path class="a" d="M4548.36,5932.919a.529.529,0,0,1-.53-.53v-4.226l.006-.894a.53.53,0,0,1,.53-.527h0a.531.531,0,0,1,.527.534l-.007.891v4.222A.53.53,0,0,1,4548.36,5932.919Z"/><path class="a" d="M4550.972,5924.629a3.156,3.156,0,1,1,3.156-3.156A3.16,3.16,0,0,1,4550.972,5924.629Zm0-5.251a2.1,2.1,0,1,0,2.095,2.1A2.1,2.1,0,0,0,4550.972,5919.378Z"/><path class="a" d="M4554.154,5931.615h-.556a.53.53,0,1,1,0-1.06h.556a.53.53,0,1,1,0,1.06Z"/><path class="a" d="M4548.347,5931.615h-.557a.53.53,0,1,1,0-1.06h.557a.53.53,0,0,1,0,1.06Z"/><path class="b" d="M4538.96,5938.112h24.024a.188.188,0,0,0,.187-.188v-4.259a41.4,41.4,0,0,1-24.4,0v4.259A.188.188,0,0,0,4538.96,5938.112Z"/></g></svg>